{"title":"Interview [x264](AC3)(5.1 ch).Swe-Eng_sub.mkv","uid":5208245,"size":1474358524,"categoryP":"video","categoryS":"movies","magnet":"?xt=urn:btih:9d882e5fe7bddd702a5bb1b150dfbd79f181411d&amp;dn=Interview+%5Bx264%5D%28AC3%29%285.1+ch%29.Swe-Eng_sub.mkv&amp;tr=udp%3A%2F%2Ftracker.openbittorrent.com%3A80&amp;tr=udp%3A%2F%2Fopen.demonii.com%3A1337&amp;tr=udp%3A%2F%2Ftracker.coppersurfer.tk%3A6969&amp;tr=udp%3A%2F%2Fexodus.desync.com%3A6969","seeders":0,"leechers":3,"uploader":"Zen_Bud","files":-1,"time":1260473688,"description":"General\nComplete name                    : Interview .mkv\nFormat                           : Matroska\nFile size                        : 1.37 GiB\nDuration                         : 1h 20mn\nOverall bit rate                 : 2 442 Kbps\n\n\nVideo\nID                               : 1\nFormat                           : AVC\nFormat/Info                      : Advanced Video Codec\n\nCodec ID                         : V_MPEG4/ISO/AVC\nDuration                         : 1h 20mn\nBit rate                         : 1 943 Kbps\nNominal bit rate                 : 1 980 Kbps\nWidth                            : 720 pixels\nHeight                           : 568 pixels\nDisplay aspect ratio             : 16/9\nFrame rate                       : 25.000 fps\nResolution                       : 24 bits\nColorimetry                      : 4:2:0\nScan type                        : Progressive\nBits/(Pixel*Frame)               : 0.190\nStream size                      : 1.09 GiB (80%)\nWriting library                  : x264 core 79\n\n\nAudio\nID                               : 2\nFormat                           : AC-3\nFormat/Info                      : Audio Coding 3\nCodec ID                         : A_AC3\nDuration                         : 1h 20mn\nBit rate mode                    : Constant\nBit rate                         : 448 Kbps\nChannel(s)                       : 6 channels\nChannel positions                : Front: L C R, Surround: L R, LFE\nSampling rate                    : 48.0 KHz\nStream size                      : 258 MiB (18%)\nLanguage                         : English\n\nText #1\nLanguage                         : Swedish\n\nText #2\nLanguage                         : English","torrent":{"xt":"urn:btih:9d882e5fe7bddd702a5bb1b150dfbd79f181411d","amp;dn":"Interview+%5Bx264%5D%28AC3%29%285.1+ch%29.Swe-Eng_sub.mkv","amp;tr":["udp%3A%2F%2Ftracker.openbittorrent.com%3A80","udp%3A%2F%2Fopen.demonii.com%3A1337","udp%3A%2F%2Ftracker.coppersurfer.tk%3A6969","udp%3A%2F%2Fexodus.desync.com%3A6969"],"infoHash":"9d882e5fe7bddd702a5bb1b150dfbd79f181411d","infoHashBuffer":{"type":"Buffer","data":[157,136,46,95,231,189,221,112,42,91,177,177,80,223,189,121,241,129,65,29]},"announce":[],"urlList":[]}}